<mxfile host="app.diagrams.net" modified="2021-08-20T10:19:42.669Z" agent="5.0 (X11; Linux x86_64) AppleWebKit/537.36 (KHTML, like Gecko) Chrome/92.0.4515.159 Safari/537.36" etag="UI5xw-YMHMVQMrWDO7hP" version="14.8.1" type="github">
  <diagram name="Page-1" id="ad52d381-51e7-2e0d-a935-2d0ddd2fd229">
    <mxGraphModel dx="1510" dy="2020" grid="0" gridSize="10" guides="1" tooltips="1" connect="1" arrows="1" fold="1" page="0" pageScale="1" pageWidth="1100" pageHeight="850" background="#ffffff" math="0" shadow="0">
      <root>
        <mxCell id="0" />
        <mxCell id="1" parent="0" />
        <mxCell id="SW2X5cqnvC2tqgpWHe0f-24" style="edgeStyle=orthogonalEdgeStyle;curved=1;rounded=0;orthogonalLoop=1;jettySize=auto;html=1;" parent="1" source="PF4azgqHsxG3GBeQV_VC-2" target="OOl6qbXMPRVZvUSyB59X-1" edge="1">
          <mxGeometry relative="1" as="geometry">
            <mxPoint x="180" y="-1001" as="targetPoint" />
            <Array as="points">
              <mxPoint x="203" y="-845" />
            </Array>
          </mxGeometry>
        </mxCell>
        <mxCell id="PF4azgqHsxG3GBeQV_VC-2" value="&lt;font style=&quot;font-size: 24px&quot;&gt;API&lt;/font&gt;" style="ellipse;whiteSpace=wrap;html=1;fillColor=#576DFF;" parent="1" vertex="1">
          <mxGeometry x="-90" y="-910" width="180" height="130" as="geometry" />
        </mxCell>
        <mxCell id="OOl6qbXMPRVZvUSyB59X-8" style="edgeStyle=orthogonalEdgeStyle;rounded=0;orthogonalLoop=1;jettySize=auto;html=1;entryX=0;entryY=0.5;entryDx=0;entryDy=0;" edge="1" parent="1" source="OOl6qbXMPRVZvUSyB59X-1" target="OOl6qbXMPRVZvUSyB59X-7">
          <mxGeometry relative="1" as="geometry" />
        </mxCell>
        <mxCell id="OOl6qbXMPRVZvUSyB59X-1" value="Пользователи" style="rounded=1;whiteSpace=wrap;html=1;" vertex="1" parent="1">
          <mxGeometry x="296" y="-1107" width="120" height="60" as="geometry" />
        </mxCell>
        <mxCell id="OOl6qbXMPRVZvUSyB59X-13" style="edgeStyle=orthogonalEdgeStyle;rounded=0;orthogonalLoop=1;jettySize=auto;html=1;entryX=0;entryY=0.5;entryDx=0;entryDy=0;" edge="1" parent="1" target="OOl6qbXMPRVZvUSyB59X-14" source="OOl6qbXMPRVZvUSyB59X-1">
          <mxGeometry relative="1" as="geometry">
            <mxPoint x="426" y="-1067" as="sourcePoint" />
          </mxGeometry>
        </mxCell>
        <mxCell id="OOl6qbXMPRVZvUSyB59X-15" style="edgeStyle=orthogonalEdgeStyle;rounded=0;orthogonalLoop=1;jettySize=auto;html=1;entryX=0;entryY=0.5;entryDx=0;entryDy=0;" edge="1" parent="1" target="OOl6qbXMPRVZvUSyB59X-16" source="OOl6qbXMPRVZvUSyB59X-1">
          <mxGeometry relative="1" as="geometry">
            <mxPoint x="436" y="-1057" as="sourcePoint" />
          </mxGeometry>
        </mxCell>
        <mxCell id="OOl6qbXMPRVZvUSyB59X-17" style="edgeStyle=orthogonalEdgeStyle;rounded=0;orthogonalLoop=1;jettySize=auto;html=1;entryX=0;entryY=0.5;entryDx=0;entryDy=0;" edge="1" parent="1" target="OOl6qbXMPRVZvUSyB59X-18" source="OOl6qbXMPRVZvUSyB59X-1">
          <mxGeometry relative="1" as="geometry">
            <mxPoint x="446" y="-1047" as="sourcePoint" />
          </mxGeometry>
        </mxCell>
        <mxCell id="OOl6qbXMPRVZvUSyB59X-19" style="edgeStyle=orthogonalEdgeStyle;rounded=0;orthogonalLoop=1;jettySize=auto;html=1;entryX=0;entryY=0.5;entryDx=0;entryDy=0;" edge="1" parent="1" target="OOl6qbXMPRVZvUSyB59X-20" source="OOl6qbXMPRVZvUSyB59X-1">
          <mxGeometry relative="1" as="geometry">
            <mxPoint x="456" y="-1037" as="sourcePoint" />
          </mxGeometry>
        </mxCell>
        <mxCell id="OOl6qbXMPRVZvUSyB59X-23" value="" style="group" vertex="1" connectable="0" parent="1">
          <mxGeometry x="492" y="-1174" width="43" height="174" as="geometry" />
        </mxCell>
        <mxCell id="OOl6qbXMPRVZvUSyB59X-7" value="Text" style="text;html=1;strokeColor=none;fillColor=none;align=center;verticalAlign=middle;whiteSpace=wrap;rounded=0;" vertex="1" parent="OOl6qbXMPRVZvUSyB59X-23">
          <mxGeometry width="40" height="20" as="geometry" />
        </mxCell>
        <mxCell id="OOl6qbXMPRVZvUSyB59X-14" value="Text" style="text;html=1;strokeColor=none;fillColor=none;align=center;verticalAlign=middle;whiteSpace=wrap;rounded=0;" vertex="1" parent="OOl6qbXMPRVZvUSyB59X-23">
          <mxGeometry y="30" width="40" height="20" as="geometry" />
        </mxCell>
        <mxCell id="OOl6qbXMPRVZvUSyB59X-16" value="Text" style="text;html=1;strokeColor=none;fillColor=none;align=center;verticalAlign=middle;whiteSpace=wrap;rounded=0;" vertex="1" parent="OOl6qbXMPRVZvUSyB59X-23">
          <mxGeometry x="3" y="87" width="40" height="20" as="geometry" />
        </mxCell>
        <mxCell id="OOl6qbXMPRVZvUSyB59X-18" value="Text" style="text;html=1;strokeColor=none;fillColor=none;align=center;verticalAlign=middle;whiteSpace=wrap;rounded=0;" vertex="1" parent="OOl6qbXMPRVZvUSyB59X-23">
          <mxGeometry y="121" width="40" height="20" as="geometry" />
        </mxCell>
        <mxCell id="OOl6qbXMPRVZvUSyB59X-20" value="Text" style="text;html=1;strokeColor=none;fillColor=none;align=center;verticalAlign=middle;whiteSpace=wrap;rounded=0;" vertex="1" parent="OOl6qbXMPRVZvUSyB59X-23">
          <mxGeometry y="154" width="40" height="20" as="geometry" />
        </mxCell>
      </root>
    </mxGraphModel>
  </diagram>
</mxfile>
